<svg width="42" height="42" viewBox="0 0 42 42" fill="none" xmlns="http://www.w3.org/2000/svg">
<path d="M20.6009 41.2561C31.9784 41.2561 41.2017 32.0206 41.2017 20.628C41.2017 9.23549 31.9784 0 20.6009 0C9.22332 0 0 9.23549 0 20.628C0 32.0206 9.22332 41.2561 20.6009 41.2561Z" fill="#AA82FF"/>
<path d="M29.707 5.42109C31.202 5.42109 32.4139 4.20754 32.4139 2.71054C32.4139 1.21355 31.202 0 29.707 0C28.212 0 27 1.21355 27 2.71054C27 4.20754 28.212 5.42109 29.707 5.42109Z" fill="black"/>
<path d="M22 33.8867L27.0656 10H30.0114L35.1069 33.8867H32.2507L31.136 27.7481H26.0107L24.8662 33.8867H22.01H22ZM26.4187 25.5956H30.718L28.5684 14.1854L26.4187 25.5956Z" fill="black"/>
<path d="M7 33.8867V10H19.8681V33.8867H16.8625V12.1824H9.99559V33.8867H7Z" fill="black"/>
</svg>
