<svg width="133" height="43" viewBox="0 0 133 43" fill="none" xmlns="http://www.w3.org/2000/svg">
<g clip-path="url(#clip0_2_748)">
<path d="M20.6009 43C31.9784 43 41.2017 33.7645 41.2017 22.3719C41.2017 10.9794 31.9784 1.7439 20.6009 1.7439C9.22332 1.7439 0 10.9794 0 22.3719C0 33.7645 9.22332 43 20.6009 43Z" fill="#AA82FF"/>
<path d="M0.258728 34.2207V10.334H13.1268V34.2207H10.1213V12.5164H3.25431V34.2207H0.258728Z" fill="black"/>
<path d="M21.5463 34.2207L26.6119 10.334H29.5577L34.6532 34.2207H31.7969L30.6823 28.0821H25.557L24.4125 34.2207H21.5562H21.5463ZM25.965 25.9296H30.2643L28.1147 14.5194L25.965 25.9296Z" fill="black"/>
<path d="M43.1125 34.2207V10.334H48.9743C50.4074 10.334 51.5419 10.5931 52.3879 11.1113C53.2338 11.6295 53.8409 12.3769 54.229 13.3535C54.6072 14.33 54.8062 15.496 54.8062 16.8512C54.8062 18.067 54.5972 19.1433 54.1693 20.08C53.7513 21.0167 53.1044 21.7442 52.2585 22.2624C51.4125 22.7806 50.3178 23.0397 49.0041 23.0397H46.118V34.2207H43.1125ZM46.118 20.8573H48.0587C49.024 20.8573 49.7804 20.7377 50.3377 20.4985C50.895 20.2594 51.3031 19.8508 51.5419 19.2728C51.7907 18.6948 51.9102 17.8876 51.9102 16.8712C51.9102 15.7152 51.8206 14.8183 51.6315 14.1905C51.4424 13.5627 51.0841 13.1243 50.5467 12.8751C50.0093 12.626 49.1833 12.5064 48.0885 12.5064H46.118V20.8573Z" fill="black"/>
<path d="M65.9028 34.2207V12.6061H61.723V10.334H72.9489V12.6061H68.9183V34.2207H65.9128H65.9028Z" fill="black"/>
<path d="M81.2191 34.2207V10.334H84.2247V20.7477H90.7632V10.334H93.7687V34.2207H90.7632V22.9201H84.2247V34.2207H81.2191Z" fill="black"/>
<path d="M103.522 34.2207V10.334H112.598V12.6061H106.527V20.8074H111.444V22.9599H106.527V32.0482H112.658V34.2306H103.532L103.522 34.2207Z" fill="black"/>
<path d="M121.306 34.2207V10.334H127.168C128.601 10.334 129.736 10.5931 130.582 11.1113C131.428 11.6295 132.035 12.3769 132.423 13.3535C132.801 14.33 133 15.496 133 16.8512C133 18.067 132.791 19.1433 132.363 20.08C131.945 21.0167 131.298 21.7442 130.452 22.2624C129.606 22.7806 128.512 23.0397 127.198 23.0397H124.312V34.2207H121.306ZM124.312 20.8573H126.252C127.218 20.8573 127.974 20.7377 128.532 20.4985C129.089 20.2594 129.497 19.8508 129.736 19.2728C129.985 18.6948 130.104 17.8876 130.104 16.8712C130.104 15.7152 130.014 14.8183 129.825 14.1905C129.636 13.5627 129.278 13.1243 128.741 12.8751C128.203 12.626 127.377 12.5064 126.282 12.5064H124.312V20.8573Z" fill="black"/>
<path d="M27.4081 5.42109C28.9031 5.42109 30.1151 4.20754 30.1151 2.71054C30.1151 1.21355 28.9031 0 27.4081 0C25.9131 0 24.7011 1.21355 24.7011 2.71054C24.7011 4.20754 25.9131 5.42109 27.4081 5.42109Z" fill="black"/>
</g>
<defs>
<clipPath id="clip0_2_748">
<rect width="133" height="43" fill="white"/>
</clipPath>
</defs>
</svg>
