<svg width="20" height="20" viewBox="0 0 20 20" xmlns="http://www.w3.org/2000/svg">
<circle cx="10" cy="10" r="10" />
<path d="M9.05 12.43L8.532 6.2H11.696L11.164 12.43H9.05ZM10.114 16.126C9.64733 16.126 9.26467 15.9813 8.966 15.692C8.66733 15.4027 8.518 15.0573 8.518 14.656C8.518 14.2453 8.66733 13.9047 8.966 13.634C9.26467 13.354 9.64733 13.214 10.114 13.214C10.5807 13.214 10.9587 13.354 11.248 13.634C11.5467 13.9047 11.696 14.2453 11.696 14.656C11.696 15.0573 11.5467 15.4027 11.248 15.692C10.9587 15.9813 10.5807 16.126 10.114 16.126Z" fill="white"/>
</svg>
