<svg width="25" height="25" viewBox="0 0 25 25" xmlns="http://www.w3.org/2000/svg">
<g clip-path="url(#clip0_2_797)">
<path d="M16.58 0C12.35 0 9.03999 1.99 9.03999 4.52V7.12C8.54999 7.06 8.04999 7.03 7.52999 7.03C3.29999 7.03 -0.0100098 9.02 -0.0100098 11.55V19.59C-0.0100098 22.12 3.29999 24.11 7.52999 24.11C10.96 24.11 13.79 22.8 14.73 20.95C15.33 21.04 15.94 21.1 16.57 21.1C20.8 21.1 24.11 19.11 24.11 16.58V4.52C24.11 1.99 20.8 0 16.57 0H16.58ZM16.58 2.01C19.74 2.01 22.11 3.34 22.11 4.52C22.11 5.7 19.75 7.03 16.58 7.03C13.41 7.03 11.05 5.7 11.05 4.52C11.05 3.34 13.41 2.01 16.58 2.01ZM7.53999 9.04C10.7 9.04 13.07 10.37 13.07 11.55C13.07 12.73 10.71 14.06 7.53999 14.06C4.36999 14.06 2.00999 12.73 2.00999 11.55C2.00999 10.37 4.36999 9.04 7.53999 9.04ZM2.00999 14.65C3.37999 15.53 5.32999 16.07 7.53999 16.07C9.74999 16.07 11.7 15.52 13.07 14.65V15.57C13.07 16.76 10.71 18.08 7.53999 18.08C4.36999 18.08 2.00999 16.75 2.00999 15.57V14.65ZM7.53999 22.1C4.37999 22.1 2.00999 20.77 2.00999 19.59V18.67C3.37999 19.55 5.32999 20.09 7.53999 20.09C9.74999 20.09 11.7 19.54 13.07 18.67V19.59C13.07 20.78 10.71 22.1 7.53999 22.1ZM16.58 19.09C16.06 19.09 15.56 19.04 15.07 18.97V16.98C15.56 17.04 16.06 17.08 16.58 17.08C18.79 17.08 20.74 16.53 22.11 15.66V16.58C22.11 17.77 19.75 19.09 16.58 19.09ZM16.58 15.07C16.06 15.07 15.56 15.02 15.07 14.95V12.96C15.56 13.02 16.06 13.06 16.58 13.06C18.79 13.06 20.74 12.51 22.11 11.64V12.56C22.11 13.75 19.75 15.07 16.58 15.07ZM16.58 11.05C16.04 11.05 15.51 11 14.99 10.92C14.79 10.03 14.18 9.23 13.26 8.59C14.26 8.88 15.38 9.04 16.57 9.04C18.78 9.04 20.73 8.49 22.1 7.62V8.54C22.1 9.73 19.74 11.05 16.57 11.05H16.58Z"/>
</g>
<defs>
<clipPath id="clip0_2_797">
<rect width="24.11" height="24.11" fill="white"/>
</clipPath>
</defs>
</svg>
