<svg width="25" height="25" viewBox="0 0 25 25" xmlns="http://www.w3.org/2000/svg">
<path d="M12.06 24.11C5.4 24.11 0 18.72 0 12.06C0 5.4 5.4 0 12.06 0C18.72 0 24.12 5.4 24.12 12.06C24.12 18.72 18.72 24.11 12.06 24.12V24.11ZM12.06 2.01C6.51 2.01 2.01 6.51 2.01 12.06C2.01 17.61 6.51 22.11 12.06 22.11C17.61 22.11 22.11 17.61 22.11 12.06C22.11 6.51 17.61 2.02 12.06 2.01ZM17.75 15.82C18.16 15.45 18.2 14.82 17.83 14.4C17.46 13.99 16.83 13.95 16.41 14.32C15.18 15.35 13.66 15.97 12.05 16.08C10.45 15.97 8.92 15.36 7.7 14.33C7.29 13.96 6.65 14 6.28 14.41C5.91 14.82 5.95 15.46 6.36 15.83C7.96 17.19 9.96 17.99 12.05 18.09C14.15 17.98 16.15 17.19 17.74 15.83L17.75 15.82ZM6.03 10.05C6.03 11.05 6.93 11.05 8.04 11.05C9.15 11.05 10.05 11.05 10.05 10.05C10.05 8.94 9.15 8.04 8.04 8.04C6.93 8.04 6.03 8.94 6.03 10.05ZM14.07 10.05C14.07 11.05 14.97 11.05 16.08 11.05C17.19 11.05 18.09 11.05 18.09 10.05C18.09 8.94 17.19 8.04 16.08 8.04C14.97 8.04 14.07 8.94 14.07 10.05Z"/>
</svg>
