<svg xmlns="http://www.w3.org/2000/svg" width="32" height="32">
    <path d="M15.531 6.078c-10.668 3.738-13.55 4.77-13.707 4.895-.617.5-.62 1.558-.012 2.043.102.082 2.793 1.304 5.973 2.718 3.184 1.414 5.817 2.598 5.852 2.63.031.034 1.215 2.667 2.629 5.85 1.414 3.18 2.636 5.872 2.718 5.974.485.609 1.543.605 2.043-.012.239-.293 9.637-27.149 9.637-27.535a1.317 1.317 0 0 0-1.332-1.301c-.246.004-2.46.765-13.8 4.738m3.773 4.723-4.934 4.937-3.973-1.765a246.37 246.37 0 0 1-4.011-1.805c-.032-.031 17.625-6.266 17.828-6.297a730.29 730.29 0 0 1-4.91 4.93m6.593-2.36c-.125.36-1.53 4.38-3.125 8.934-1.593 4.555-2.91 8.277-2.93 8.277-.015 0-.831-1.804-1.808-4.007l-1.777-4.012 4.926-4.922a2322.4 2322.4 0 0 1 4.933-4.926c.008 0-.09.293-.219.656"/>
</svg>
