<svg width="32" height="32" viewBox="0 0 32 32" xmlns="http://www.w3.org/2000/svg">
<g clip-path="url(#clip0_2_2056)">
<path d="M16 10.6667C14.9452 10.6667 13.914 10.9795 13.037 11.5655C12.1599 12.1516 11.4763 12.9845 11.0727 13.959C10.669 14.9336 10.5634 16.0059 10.7692 17.0405C10.975 18.0751 11.4829 19.0254 12.2288 19.7713C12.9747 20.5171 13.925 21.0251 14.9595 21.2309C15.9941 21.4367 17.0665 21.331 18.041 20.9274C19.0155 20.5237 19.8485 19.8401 20.4345 18.9631C21.0206 18.086 21.3334 17.0549 21.3334 16C21.3334 14.5855 20.7715 13.229 19.7713 12.2288C18.7711 11.2286 17.4145 10.6667 16 10.6667ZM16 18.6667C15.4726 18.6667 14.957 18.5103 14.5185 18.2173C14.08 17.9243 13.7382 17.5078 13.5363 17.0205C13.3345 16.5332 13.2817 15.9971 13.3846 15.4798C13.4875 14.9625 13.7415 14.4873 14.1144 14.1144C14.4873 13.7415 14.9625 13.4875 15.4798 13.3846C15.9971 13.2817 16.5332 13.3345 17.0205 13.5363C17.5078 13.7382 17.9243 14.08 18.2173 14.5185C18.5103 14.957 18.6667 15.4726 18.6667 16C18.6667 16.7073 18.3857 17.3855 17.8856 17.8856C17.3855 18.3857 16.7073 18.6667 16 18.6667Z"/>
<path d="M28.392 18.5333L27.8 18.192C28.0665 16.7419 28.0665 15.2554 27.8 13.8053L28.392 13.464C28.8472 13.2014 29.2463 12.8516 29.5664 12.4347C29.8865 12.0179 30.1213 11.5421 30.2575 11.0344C30.3937 10.5268 30.4286 9.99732 30.3601 9.47621C30.2917 8.95511 30.1213 8.45258 29.8587 7.99733C29.596 7.54208 29.2463 7.14302 28.8294 6.82294C28.4125 6.50285 27.9367 6.26801 27.4291 6.13182C26.9215 5.99562 26.392 5.96075 25.8709 6.02918C25.3498 6.09762 24.8472 6.26802 24.392 6.53067L23.7987 6.87333C22.678 5.91589 21.3902 5.17366 20 4.684V4C20 2.93913 19.5786 1.92172 18.8284 1.17157C18.0783 0.421427 17.0609 0 16 0C14.9391 0 13.9217 0.421427 13.1716 1.17157C12.4214 1.92172 12 2.93913 12 4V4.684C10.6098 5.17542 9.32246 5.91947 8.20266 6.87867L7.60666 6.53333C6.68725 6.0029 5.59477 5.85943 4.56957 6.13448C3.54437 6.40954 2.67043 7.08058 2.14 8C1.60956 8.91942 1.46609 10.0119 1.74115 11.0371C2.0162 12.0623 2.68725 12.9362 3.60666 13.4667L4.19866 13.808C3.93214 15.2581 3.93214 16.7446 4.19866 18.1947L3.60666 18.536C2.68725 19.0664 2.0162 19.9404 1.74115 20.9656C1.46609 21.9908 1.60956 23.0833 2.14 24.0027C2.67043 24.9221 3.54437 25.5931 4.56957 25.8682C5.59477 26.1432 6.68725 25.9998 7.60666 25.4693L8.2 25.1267C9.32102 26.0842 10.6093 26.8265 12 27.316V28C12 29.0609 12.4214 30.0783 13.1716 30.8284C13.9217 31.5786 14.9391 32 16 32C17.0609 32 18.0783 31.5786 18.8284 30.8284C19.5786 30.0783 20 29.0609 20 28V27.316C21.3901 26.8246 22.6775 26.0805 23.7973 25.1213L24.3933 25.4653C25.3127 25.9958 26.4052 26.1392 27.4304 25.8642C28.4556 25.5891 29.3296 24.9181 29.86 23.9987C30.3904 23.0793 30.5339 21.9868 30.2588 20.9616C29.9838 19.9364 29.3127 19.0624 28.3933 18.532L28.392 18.5333ZM24.9947 13.4987C25.4462 15.1348 25.4462 16.8626 24.9947 18.4987C24.9158 18.7834 24.9338 19.0863 25.0458 19.3597C25.1578 19.6332 25.3574 19.8617 25.6133 20.0093L27.0587 20.844C27.3651 21.0208 27.5887 21.3121 27.6803 21.6538C27.772 21.9955 27.7241 22.3596 27.5473 22.666C27.3705 22.9724 27.0792 23.196 26.7375 23.2877C26.3958 23.3793 26.0317 23.3315 25.7253 23.1547L24.2773 22.3173C24.0212 22.169 23.723 22.1101 23.4297 22.1499C23.1363 22.1897 22.8646 22.326 22.6573 22.5373C21.4705 23.7489 19.9754 24.6133 18.3333 25.0373C18.0467 25.111 17.7927 25.278 17.6115 25.5119C17.4302 25.7458 17.3318 26.0334 17.332 26.3293V28C17.332 28.3536 17.1915 28.6928 16.9415 28.9428C16.6914 29.1929 16.3523 29.3333 15.9987 29.3333C15.645 29.3333 15.3059 29.1929 15.0559 28.9428C14.8058 28.6928 14.6653 28.3536 14.6653 28V26.3307C14.6655 26.0347 14.5672 25.7471 14.3859 25.5132C14.2046 25.2793 13.9506 25.1124 13.664 25.0387C12.0218 24.6129 10.5271 23.7466 9.34133 22.5333C9.13403 22.322 8.86231 22.1857 8.569 22.1459C8.27569 22.1061 7.97747 22.165 7.72133 22.3133L6.276 23.1493C6.1243 23.2383 5.95652 23.2963 5.7823 23.3201C5.60808 23.344 5.43087 23.3331 5.26087 23.2881C5.09087 23.2432 4.93144 23.1651 4.79176 23.0582C4.65207 22.9514 4.5349 22.8181 4.44698 22.6658C4.35906 22.5135 4.30212 22.3453 4.27946 22.1709C4.25679 21.9966 4.26884 21.8194 4.31492 21.6497C4.36099 21.48 4.44017 21.3211 4.54791 21.1822C4.65564 21.0432 4.7898 20.9269 4.94266 20.84L6.388 20.0053C6.64393 19.8577 6.84356 19.6292 6.95554 19.3557C7.06752 19.0823 7.0855 18.7794 7.00666 18.4947C6.55514 16.8586 6.55514 15.1308 7.00666 13.4947C7.08408 13.2105 7.06524 12.9087 6.95308 12.6364C6.84092 12.3641 6.64175 12.1365 6.38666 11.9893L4.94133 11.1547C4.63492 10.9779 4.41129 10.6866 4.31965 10.3449C4.228 10.0032 4.27585 9.63908 4.45266 9.33267C4.62947 9.02625 4.92077 8.80263 5.26246 8.71099C5.60415 8.61934 5.96825 8.66719 6.27466 8.844L7.72266 9.68133C7.9781 9.83002 8.2757 9.88962 8.5687 9.85076C8.86169 9.8119 9.13348 9.67679 9.34133 9.46667C10.5281 8.25512 12.0232 7.39069 13.6653 6.96667C13.9528 6.89275 14.2075 6.725 14.3888 6.49C14.5702 6.255 14.668 5.96619 14.6667 5.66933V4C14.6667 3.64638 14.8071 3.30724 15.0572 3.05719C15.3072 2.80714 15.6464 2.66667 16 2.66667C16.3536 2.66667 16.6928 2.80714 16.9428 3.05719C17.1929 3.30724 17.3333 3.64638 17.3333 4V5.66933C17.3332 5.96528 17.4315 6.25286 17.6128 6.48677C17.7941 6.72069 18.048 6.88764 18.3347 6.96133C19.9773 7.38687 21.4725 8.25318 22.6587 9.46667C22.866 9.67796 23.1377 9.81426 23.431 9.85409C23.7243 9.89392 24.0225 9.83502 24.2787 9.68667L25.724 8.85067C25.8757 8.76174 26.0435 8.70369 26.2177 8.67987C26.3919 8.65605 26.5691 8.66692 26.7391 8.71187C26.9091 8.75681 27.0686 8.83494 27.2082 8.94175C27.3479 9.04856 27.4651 9.18195 27.553 9.33423C27.6409 9.48651 27.6979 9.65468 27.7205 9.82905C27.7432 10.0034 27.7311 10.1806 27.6851 10.3503C27.639 10.52 27.5598 10.6789 27.4521 10.8178C27.3444 10.9568 27.2102 11.0731 27.0573 11.16L25.612 11.9947C25.3574 12.1423 25.1588 12.37 25.0471 12.6423C24.9354 12.9145 24.917 13.2161 24.9947 13.5V13.4987Z"/>
</g>
<defs>
<clipPath id="clip0_2_2056">
<rect width="32" height="32" fill="white"/>
</clipPath>
</defs>
</svg>
