<svg width="22" height="22" viewBox="0 0 22 22" xmlns="http://www.w3.org/2000/svg">
<path d="M21.03 20.12H4.56C3.04 20.12 1.82 18.89 1.82 17.38V0.91C1.82 0.4 1.41 0 0.91 0C0.41 0 0 0.41 0 0.91V17.37C0 19.89 2.05 21.94 4.57 21.94H21.03C21.54 21.94 21.94 21.53 21.94 21.03C21.94 20.53 21.53 20.12 21.03 20.12Z" />
<path d="M5.48001 18.2899C5.99001 18.2899 6.39001 17.8799 6.39001 17.3799V10.9799C6.39001 10.4699 5.98001 10.0699 5.48001 10.0699C4.98001 10.0699 4.57001 10.4799 4.57001 10.9799V17.3799C4.57001 17.8899 4.98001 18.2899 5.48001 18.2899Z"/>
<path d="M9.14001 9.14999V17.38C9.14001 17.89 9.55002 18.29 10.05 18.29C10.55 18.29 10.96 17.88 10.96 17.38V9.14999C10.96 8.63999 10.55 8.23999 10.05 8.23999C9.55002 8.23999 9.14001 8.64999 9.14001 9.14999Z" />
<path d="M13.71 11.89V17.38C13.71 17.89 14.12 18.29 14.62 18.29C15.12 18.29 15.53 17.88 15.53 17.38V11.89C15.53 11.38 15.12 10.98 14.62 10.98C14.12 10.98 13.71 11.39 13.71 11.89Z" />
<path d="M18.28 8.22995V17.3799C18.28 17.8899 18.69 18.2899 19.19 18.2899C19.69 18.2899 20.1 17.8799 20.1 17.3799V8.22995C20.1 7.71995 19.69 7.31995 19.19 7.31995C18.69 7.31995 18.28 7.72995 18.28 8.22995Z" />
<path d="M5.48001 8.23001C5.72001 8.23001 5.96001 8.13001 6.13001 7.96001L9.41001 4.68001C9.77001 4.34001 10.34 4.34001 10.7 4.68001L12.69 6.67001C13.76 7.74002 15.5 7.74002 16.57 6.67001L21.68 1.56001C22.03 1.20001 22.02 0.620015 21.66 0.270015C21.31 -0.0699854 20.74 -0.0699854 20.39 0.270015L15.28 5.38001C14.92 5.74002 14.34 5.74002 13.99 5.38001L12 3.39001C10.93 2.32001 9.19001 2.32001 8.12001 3.39001L4.84001 6.67001C4.48001 7.03001 4.48001 7.61001 4.84001 7.96001C5.01001 8.13001 5.24001 8.23001 5.49001 8.23001H5.48001Z"/>
</svg>
