<svg width="25" height="25" viewBox="0 0 25 25" xmlns="http://www.w3.org/2000/svg">
<path d="M12.06 16.08C9.84 16.08 8.04 14.28 8.04 12.06C8.04 9.84 9.84 8.04 12.06 8.04C14.28 8.04 16.08 9.84 16.08 12.06C16.08 14.28 14.28 16.08 12.06 16.08ZM12.06 10.05C10.95 10.05 10.05 10.95 10.05 12.06C10.05 13.17 10.95 14.07 12.06 14.07C13.17 14.07 14.07 13.17 14.07 12.06C14.07 10.95 13.17 10.05 12.06 10.05ZM18.09 23.11C18.09 19.78 15.39 17.08 12.06 17.08C8.73 17.08 6.03 19.78 6.03 23.11C6.03 23.66 6.48 24.11 7.03 24.11C7.58 24.11 8.03 23.66 8.03 23.11C8.03 20.89 9.83 19.09 12.05 19.09C14.27 19.09 16.07 20.89 16.07 23.11C16.07 23.66 16.52 24.11 17.07 24.11C17.62 24.11 18.07 23.66 18.07 23.11H18.09ZM18.09 8.04C15.87 8.04 14.07 6.24 14.07 4.02C14.07 1.8 15.87 0 18.09 0C20.31 0 22.11 1.8 22.11 4.02C22.11 6.24 20.31 8.04 18.09 8.04ZM18.09 2.01C16.98 2.01 16.08 2.91 16.08 4.02C16.08 5.13 16.98 6.03 18.09 6.03C19.2 6.03 20.1 5.13 20.1 4.02C20.1 2.91 19.2 2.01 18.09 2.01ZM24.12 15.07C24.12 11.74 21.42 9.04 18.09 9.04C17.54 9.04 17.09 9.49 17.09 10.04C17.09 10.59 17.54 11.04 18.09 11.04C20.31 11.04 22.11 12.84 22.11 15.06C22.11 15.61 22.56 16.06 23.11 16.06C23.66 16.06 24.11 15.61 24.11 15.06L24.12 15.07ZM6.03 8.04C3.81 8.04 2.01 6.24 2.01 4.02C2.01 1.8 3.81 0 6.03 0C8.25 0 10.05 1.8 10.05 4.02C10.05 6.24 8.25 8.04 6.03 8.04ZM6.03 2.01C4.92 2.01 4.02 2.91 4.02 4.02C4.02 5.13 4.92 6.03 6.03 6.03C7.14 6.03 8.04 5.13 8.04 4.02C8.04 2.91 7.14 2.01 6.03 2.01ZM2.01 15.07C2.01 12.85 3.81 11.05 6.03 11.05C6.58 11.05 7.03 10.6 7.03 10.05C7.03 9.5 6.58 9.05 6.03 9.05C2.7 9.05 0 11.75 0 15.08C0 15.63 0.45 16.08 1 16.08C1.55 16.08 2 15.63 2 15.08L2.01 15.07Z"/>
</svg>
